<svg xmlns="http://www.w3.org/2000/svg" xmlns:xlink="http://www.w3.org/1999/xlink" width="30.5" height="26.998" viewBox="0 0 30.5 26.998">
  <defs>
    <linearGradient id="linear-gradient" x1="0.5" x2="0.5" y2="1" gradientUnits="objectBoundingBox">
      <stop offset="0" stop-color="#8ecef1"/>
      <stop offset="1" stop-color="#4291e6"/>
    </linearGradient>
    <linearGradient id="linear-gradient-2" x1="0.5" x2="0.5" y2="1" gradientUnits="objectBoundingBox">
      <stop offset="0" stop-color="#04bdfb"/>
      <stop offset="1" stop-color="#0580ff"/>
    </linearGradient>
    <linearGradient id="linear-gradient-3" x1="1" y1="0.281" x2="0" y2="0.741" gradientUnits="objectBoundingBox">
      <stop offset="0" stop-color="#505f80"/>
      <stop offset="0.567" stop-color="#2a3c5d"/>
      <stop offset="1" stop-color="#2a3c5d"/>
    </linearGradient>
  </defs>
  <g id="Deposit" transform="translate(-196.898 -240.566)">
    <rect id="矩形_1003" data-name="矩形 1003" width="9.171" height="6.67" transform="translate(216.907 249.042)" fill="#fff"/>
    <g id="我的钱包" transform="translate(196.898 240.566)">
      <path id="路径_486" data-name="路径 486" d="M185.532,312.434a1.824,1.824,0,1,1,0-3.639h6.106v-1.513a1.841,1.841,0,0,0-1.9-1.774H168.487a1.841,1.841,0,0,0-1.9,1.774v12.247a1.841,1.841,0,0,0,1.9,1.774H189.74a1.841,1.841,0,0,0,1.9-1.774v-7.095Z" transform="translate(-162.46 -298.793)" fill="#293b50"/>
      <path id="路径_487" data-name="路径 487" d="M878.647,485.114a1.184,1.184,0,1,0,1.184-1.184A1.184,1.184,0,0,0,878.647,485.114Z" transform="translate(-856.871 -473.292)" fill="#293b50"/>
      <path id="路径_488" data-name="路径 488" d="M2.965,7.473a1.9,1.9,0,0,1,2-1.774h20.6L23.835,1.231a2.078,2.078,0,0,0-2.541-1.1L1.373,6.188A1.74,1.74,0,0,0,.128,8.441l2.837,7.337Z" transform="translate(-0.022 -0.033)" fill="#293b50"/>
      <circle id="椭圆_2256" data-name="椭圆 2256" cx="4.361" cy="4.361" r="4.361" transform="translate(10.805 10.239)" fill="#fff"/>
      <path id="全额付款" d="M5.6,0a5.6,5.6,0,1,0,5.6,5.6A5.6,5.6,0,0,0,5.6,0Zm2.19,3.213L6.53,5.15h.693a.4.4,0,0,1,0,.794H6.068V6.27H7.223a.4.4,0,0,1,0,.794H6.068V8.255a.419.419,0,0,1-.418.418H5.567a.419.419,0,0,1-.418-.418V7.064H4.006a.4.4,0,1,1,0-.794H5.149V5.944H4.006a.4.4,0,0,1,0-.794h.659L3.408,3.213a.419.419,0,0,1,.123-.578L3.6,2.59a.419.419,0,0,1,.578.123L5.6,4.9,7.017,2.713a.419.419,0,0,1,.578-.123l.07.046a.419.419,0,0,1,.123.578Z" transform="translate(8.805 8.766)" fill="url(#linear-gradient)"/>
    </g>
    <path id="路径_536" data-name="路径 536" d="M5.2,5.2,0,5.2A5.2,5.2,0,1,0,5.2,0,5.2,5.2,0,0,0,0,5.2Z" transform="translate(216.49 256.656)" stroke="#fff" stroke-width="1" fill="url(#linear-gradient-2)"/>
    <path id="路径_538" data-name="路径 538" d="M298.667,254.855V253.9H304.8v.981h-4.756l1.076,1.13-.677.711-1.752-1.84h-.025v-.026Z" transform="translate(-80.092 7.126)" fill="#fff"/>
    <line id="直线_159" data-name="直线 159" y2="11.672" transform="translate(203.151 249.459)" fill="none" stroke="#505f80" stroke-width="1" stroke-dasharray="2"/>
    <circle id="椭圆_2211" data-name="椭圆 2211" cx="1.667" cy="1.667" r="1.667" transform="translate(216.073 241.538)" fill="url(#linear-gradient-3)"/>
    <circle id="椭圆_2212" data-name="椭圆 2212" cx="0.834" cy="0.834" r="0.834" transform="translate(223.04 247.791)" fill="url(#linear-gradient-3)"/>
    <path id="矩形_1005" data-name="矩形 1005" d="M2.5,0H8.337a0,0,0,0,1,0,0V5a0,0,0,0,1,0,0H2.5A2.5,2.5,0,0,1,0,2.5v0A2.5,2.5,0,0,1,2.5,0Z" transform="translate(217.741 249.875)" fill="url(#linear-gradient)"/>
    <circle id="椭圆_2213" data-name="椭圆 2213" cx="1.667" cy="1.667" r="1.667" transform="translate(218.575 250.709)" fill="#fff"/>
  </g>
</svg>
