<svg xmlns="http://www.w3.org/2000/svg" xmlns:xlink="http://www.w3.org/1999/xlink" width="35.744" height="35.301" viewBox="0 0 35.744 35.301">
  <defs>
    <filter id="game_fav_hover" x="0" y="0" width="35.744" height="35.301" filterUnits="userSpaceOnUse">
      <feOffset dy="3" input="SourceAlpha"/>
      <feGaussianBlur stdDeviation="3" result="blur"/>
      <feFlood flood-opacity="0.161"/>
      <feComposite operator="in" in2="blur"/>
      <feComposite in="SourceGraphic"/>
    </filter>
  </defs>
  <g transform="matrix(1, 0, 0, 1, 0, 0)" filter="url(#game_fav_hover)">
    <path id="game_fav_hover-2" data-name="game_fav_hover" d="M90.524,113.059a1.57,1.57,0,0,1-2.177-.531,1.608,1.608,0,0,1-.186-1.194l.967-4.122a.273.273,0,0,0-.084-.267l-3.164-2.757a1.605,1.605,0,0,1-.171-2.24,1.574,1.574,0,0,1,1.076-.556l4.152-.338a.25.25,0,0,0,.208-.158l1.6-3.913a1.573,1.573,0,0,1,2.918,0l1.6,3.913a.249.249,0,0,0,.208.158l4.153.338a1.6,1.6,0,0,1,.9,2.8l-3.164,2.757a.273.273,0,0,0-.084.267l.967,4.122a1.6,1.6,0,0,1-1.167,1.918,1.565,1.565,0,0,1-1.2-.192l-3.555-2.209a.235.235,0,0,0-.25,0l-3.555,2.209Z" transform="translate(-76.33 -89.99)" fill="#fffcfc"/>
  </g>
</svg>
