<svg 
 xmlns="http://www.w3.org/2000/svg"
 xmlns:xlink="http://www.w3.org/1999/xlink"
 width="99px" height="99px">
<path fill-rule="evenodd"  fill="rgb(136, 150, 164)"
 d="M49.500,98.791 C22.277,98.791 0.208,76.722 0.208,49.500 C0.208,22.277 22.277,0.208 49.500,0.208 C76.722,0.208 98.791,22.277 98.791,49.500 C98.791,76.722 76.722,98.791 49.500,98.791 ZM49.500,4.976 C24.910,4.976 4.976,24.910 4.976,49.500 C4.976,74.89 24.910,94.23 49.500,94.23 C74.89,94.23 94.23,74.89 94.23,49.500 C94.23,24.910 74.89,4.976 49.500,4.976 ZM54.853,53.506 C53.79,55.22 52.0,56.438 51.614,57.753 C51.228,59.69 51.35,61.100 51.35,63.846 L45.929,63.846 C45.957,60.99 46.272,57.489 46.873,56.16 C47.473,54.543 49.104,52.591 51.764,50.159 C54.853,46.956 57.106,44.274 58.522,42.114 C59.938,39.955 60.646,37.216 60.646,33.897 C60.646,30.236 59.673,27.404 57.728,25.402 C55.783,23.400 53.8,22.398 49.404,22.398 C46.29,22.398 43.311,23.378 41.252,25.337 C39.192,27.297 38.148,29.950 38.120,33.297 L33.314,33.297 L33.228,33.39 C33.143,28.319 34.630,24.601 37.691,21.883 C40.751,19.166 44.656,17.807 49.404,17.807 C54.524,17.807 58.536,19.252 61.440,22.141 C64.342,25.30 65.795,28.935 65.795,33.854 C65.795,37.716 64.843,41.142 62.941,44.131 C61.39,47.120 58.343,50.245 54.853,53.506 ZM51.721,81.181 L45.757,81.181 L45.757,74.573 L51.721,74.573 L51.721,81.181 Z"/>
</svg>