<svg 
 xmlns="http://www.w3.org/2000/svg"
 xmlns:xlink="http://www.w3.org/1999/xlink"
 width="92px" height="102px">
<path fill-rule="evenodd"  fill="rgb(136, 149, 164)"
 d="M80.694,101.55 L11.250,101.55 C5.497,101.55 0.833,96.391 0.833,90.638 L0.833,10.777 C0.833,5.24 5.497,0.361 11.250,0.361 L80.694,0.361 C86.447,0.361 91.111,5.24 91.111,10.777 L91.111,90.638 C91.111,96.391 86.447,101.55 80.694,101.55 ZM86.214,12.767 C86.214,8.932 83.104,5.823 79.269,5.823 L12.674,5.823 C8.839,5.823 5.730,8.932 5.730,12.767 L5.730,88.649 C5.730,92.484 8.839,95.593 12.674,95.593 L79.269,95.593 C83.104,95.593 86.214,92.484 86.214,88.649 L86.214,12.767 ZM68.541,80.222 L16.458,80.222 C15.499,80.222 14.722,79.444 14.722,78.486 L14.722,75.13 C14.722,74.55 15.499,73.277 16.458,73.277 L68.541,73.277 C69.500,73.277 70.277,74.55 70.277,75.13 L70.277,78.486 C70.277,79.444 69.500,80.222 68.541,80.222 ZM68.541,59.388 L16.458,59.388 C15.499,59.388 14.722,58.611 14.722,57.652 L14.722,54.180 C14.722,53.221 15.499,52.444 16.458,52.444 L68.541,52.444 C69.500,52.444 70.277,53.221 70.277,54.180 L70.277,57.652 C70.277,58.611 69.500,59.388 68.541,59.388 ZM44.236,31.611 L16.458,31.611 C15.499,31.611 14.722,30.833 14.722,29.875 L14.722,26.402 C14.722,25.443 15.499,24.666 16.458,24.666 L44.236,24.666 C45.194,24.666 45.972,25.443 45.972,26.402 L45.972,29.875 C45.972,30.833 45.194,31.611 44.236,31.611 Z"/>
</svg>