<svg 
 xmlns="http://www.w3.org/2000/svg"
 xmlns:xlink="http://www.w3.org/1999/xlink"
 width="99px" height="99px">
<path fill-rule="evenodd"  fill="rgb(136, 150, 164)"
 d="M49.500,98.791 C22.277,98.791 0.208,76.722 0.208,49.500 C0.208,22.277 22.277,0.208 49.500,0.208 C76.722,0.208 98.791,22.277 98.791,49.500 C98.791,76.722 76.722,98.791 49.500,98.791 ZM49.500,4.976 C24.910,4.976 4.976,24.910 4.976,49.500 C4.976,74.89 24.910,94.23 49.500,94.23 C74.89,94.23 94.23,74.89 94.23,49.500 C94.23,24.910 74.89,4.976 49.500,4.976 ZM47.421,30.750 L51.564,30.750 L51.564,84.606 L47.421,84.606 L47.421,30.750 ZM47.421,20.393 L51.564,20.393 L51.564,27.643 L47.421,27.643 L47.421,20.393 Z"/>
</svg>