<svg xmlns="http://www.w3.org/2000/svg" width="14" height="14" viewBox="0 0 14 14">
  <g id="h5_zp" transform="translate(260.061 -612.593)">
    <g id="组_4955" data-name="组 4955">
      <path id="路径_562" data-name="路径 562" d="M129.939,137.593a7,7,0,1,1,7-7A7.008,7.008,0,0,1,129.939,137.593Zm0-12.949a5.949,5.949,0,1,0,5.95,5.949,5.956,5.956,0,0,0-5.95-5.949Z" transform="translate(-383 489)" fill="#909eaa"/>
      <path id="路径_563" data-name="路径 563" d="M222.912,220.84a.525.525,0,0,1-.525-.525v-1.546a.525.525,0,1,1,1.05,0v1.546A.525.525,0,0,1,222.912,220.84Zm-2.283.94a.524.524,0,0,1-.371-.154l-1.093-1.093a.525.525,0,1,1,.743-.743L221,220.883a.525.525,0,0,1-.371.9Zm-.951,2.279h-1.546a.525.525,0,1,1,0-1.05h1.546a.525.525,0,1,1,0,1.05Zm-.153,3.376a.525.525,0,0,1-.371-.9l1.093-1.092a.525.525,0,1,1,.743.743L219.9,227.28A.523.523,0,0,1,219.525,227.434Zm3.371,1.4a.525.525,0,0,1-.525-.525v-1.546a.525.525,0,0,1,1.05,0v1.546A.525.525,0,0,1,222.9,228.837Zm3.376-1.392a.524.524,0,0,1-.371-.154l-1.092-1.092a.525.525,0,0,1,.743-.743l1.092,1.092a.525.525,0,0,1-.371.9Zm1.4-3.371h-1.546a.525.525,0,1,1,0-1.05h1.546a.525.525,0,1,1,0,1.05Zm-2.484-2.283a.525.525,0,0,1-.371-.9l1.092-1.093a.525.525,0,0,1,.743.743l-1.092,1.093A.524.524,0,0,1,225.191,221.79Z" transform="translate(-475.964 396.052)" fill="#909eaa"/>
    </g>
  </g>
</svg>
