<svg xmlns="http://www.w3.org/2000/svg" width="13" height="12.973" viewBox="0 0 13 12.973">
  <path id="h5_dl" d="M138.038,129.081a1.081,1.081,0,1,1-1.081,1.081,1.084,1.084,0,0,1,1.081-1.081m-8.676,0a1.081,1.081,0,1,1-1.081,1.081,1.084,1.084,0,0,1,1.081-1.081m8.662,5.405a1.084,1.084,0,0,1,1.081,1.081v4.324h-2.162v-4.324a1.084,1.084,0,0,1,1.081-1.081m-8.649,0a1.084,1.084,0,0,1,1.081,1.081v4.324h-2.162v-4.324a1.084,1.084,0,0,1,1.081-1.081M138.038,128a2.162,2.162,0,1,0,2.162,2.162A2.169,2.169,0,0,0,138.038,128Zm-8.676,0a2.162,2.162,0,1,0,2.162,2.162A2.169,2.169,0,0,0,129.362,128Zm8.662,5.405a2.169,2.169,0,0,0-2.162,2.162v.865l-2.176,1.257-2.149-1.243v-.824a2.193,2.193,0,0,0-1.757-2.176,2.162,2.162,0,0,0-2.568,2.122v4.865a.542.542,0,0,0,.541.541H131a.542.542,0,0,0,.541-.541v-2.743l1.865,1.081c.014,0,.014.014.027.014a.475.475,0,0,0,.27.068.665.665,0,0,0,.27-.068l1.892-1.108v2.757a.542.542,0,0,0,.541.541h3.243a.542.542,0,0,0,.541-.541v-4.865A2.169,2.169,0,0,0,138.024,133.405Z" transform="translate(-127.2 -128)" fill="#7a8896"/>
</svg>
