<svg 
 xmlns="http://www.w3.org/2000/svg"
 xmlns:xlink="http://www.w3.org/1999/xlink"
 width="84px" height="83px">
<path fill-rule="evenodd"  stroke="rgb(0, 0, 0)" stroke-width="0px" stroke-linecap="butt" stroke-linejoin="miter" fill="rgb(145, 150, 153)"
 d="M46.962,40.984 L82.219,76.7 C83.594,77.373 83.601,79.594 82.236,80.968 C80.870,82.343 78.649,82.350 77.275,80.985 L42.0,45.944 L6.938,80.985 C5.572,82.350 3.364,82.343 2.7,80.968 C0.650,79.594 0.657,77.373 2.24,76.7 L37.37,41.15 L1.780,5.992 C0.405,4.626 0.398,2.405 1.763,1.31 C3.129,0.343 5.350,0.350 6.724,1.14 L42.0,36.55 L77.61,1.14 C78.427,0.350 80.635,0.343 81.992,1.31 C83.349,2.405 83.342,4.626 81.975,5.992 L46.962,40.984 Z"/>
</svg>