<svg 
 xmlns="http://www.w3.org/2000/svg"
 xmlns:xlink="http://www.w3.org/1999/xlink"
 width="97px" height="99px">
<path fill-rule="evenodd"  fill="rgb(134, 150, 165)"
 d="M79.0,35.133 C72.759,35.133 67.315,31.786 64.319,26.800 L34.618,45.898 C34.942,47.214 35.133,48.583 35.133,49.999 C35.133,51.21 35.27,52.17 34.855,52.990 L64.209,72.381 C67.180,67.294 72.683,63.866 79.0,63.866 C88.462,63.866 96.133,71.537 96.133,81.0 C96.133,90.462 88.462,98.133 79.0,98.133 C69.537,98.133 61.866,90.462 61.866,81.0 C61.866,79.666 62.34,78.373 62.322,77.127 L33.199,57.888 C30.344,63.377 24.615,67.133 17.999,67.133 C8.537,67.133 0.866,59.462 0.866,49.999 C0.866,40.537 8.537,32.866 17.999,32.866 C24.240,32.866 29.684,36.213 32.680,41.199 L62.381,22.101 C62.57,20.785 61.866,19.416 61.866,17.999 C61.866,8.537 69.537,0.866 79.0,0.866 C88.462,0.866 96.133,8.537 96.133,17.999 C96.133,27.462 88.462,35.133 79.0,35.133 ZM79.0,92.967 C85.609,92.967 90.967,87.609 90.967,81.0 C90.967,74.390 85.609,69.32 79.0,69.32 C72.390,69.32 67.32,74.390 67.32,81.0 C67.32,87.609 72.390,92.967 79.0,92.967 ZM17.999,38.32 C11.390,38.32 6.32,43.390 6.32,49.999 C6.32,56.609 11.390,61.967 17.999,61.967 C24.609,61.967 29.967,56.609 29.967,49.999 C29.967,43.390 24.609,38.32 17.999,38.32 ZM79.0,6.32 C72.390,6.32 67.32,11.390 67.32,17.999 C67.32,24.609 72.390,29.967 79.0,29.967 C85.609,29.967 90.967,24.609 90.967,17.999 C90.967,11.390 85.609,6.32 79.0,6.32 Z"/>
</svg>