<svg xmlns="http://www.w3.org/2000/svg" xmlns:xlink="http://www.w3.org/1999/xlink" width="29.458" height="24.988" viewBox="0 0 29.458 24.988">
  <defs>
    <linearGradient id="linear-gradient" x1="1" y1="0.281" x2="0" y2="0.741" gradientUnits="objectBoundingBox">
      <stop offset="0" stop-color="#505f80"/>
      <stop offset="0.567" stop-color="#2a3c5d"/>
      <stop offset="1" stop-color="#2a3c5d"/>
    </linearGradient>
    <linearGradient id="linear-gradient-2" x1="0.5" x2="0.5" y2="1" gradientUnits="objectBoundingBox">
      <stop offset="0" stop-color="#8ecef1"/>
      <stop offset="1" stop-color="#4291e6"/>
    </linearGradient>
  </defs>
  <g id="Transfer" transform="translate(-251.898 -240.732)">
    <path id="矩形_1000" data-name="矩形 1000" d="M12,0H24.261a4,4,0,0,1,4,4V17.8a4,4,0,0,1-4,4H4a4,4,0,0,1-4-4V12A12,12,0,0,1,12,0Z" transform="translate(251.898 240.732)" fill="#293b50"/>
    <circle id="椭圆_2210" data-name="椭圆 2210" cx="2.826" cy="2.826" r="2.826" transform="translate(272.893 241.54)" fill="url(#linear-gradient)"/>
    <g id="组_4987" data-name="组 4987" transform="translate(5312.898 8127.732)">
      <circle id="椭圆_2254" data-name="椭圆 2254" cx="5.5" cy="5.5" r="5.5" transform="translate(-5052 -7881)" fill="#fff"/>
      <path id="info" d="M70.669,64a6.683,6.683,0,1,1-4.711,1.957A6.652,6.652,0,0,1,70.669,64Zm1,4.094a.913.913,0,0,0,.64-.231.879.879,0,0,0,0-1.235.983.983,0,0,0-1.265,0,.881.881,0,0,0,0,1.235.9.9,0,0,0,.626.231Zm.179,5.358c0-.06.005-.139.015-.238a1.358,1.358,0,0,0,0-.283l-.789.908a1.042,1.042,0,0,1-.246.208.264.264,0,0,1-.216.045.188.188,0,0,1-.119-.208l1.31-4.123a.857.857,0,0,0-.8-1.072,2.168,2.168,0,0,0-1.139.439,4.293,4.293,0,0,0-1.08,1.079v.224a1.356,1.356,0,0,0,0,.283l.789-.908a1.043,1.043,0,0,1,.246-.208.238.238,0,0,1,.2-.044.185.185,0,0,1,.1.238l-1.3,4.109a.74.74,0,0,0,.1.662,1.123,1.123,0,0,0,.729.394,1.962,1.962,0,0,0,1.251-.431,4.8,4.8,0,0,0,.938-1.071Z" transform="translate(-5117 -7946)" fill="url(#linear-gradient-2)"/>
    </g>
    <g id="组_4988" data-name="组 4988" transform="translate(5325.36 8138.724)">
      <circle id="椭圆_2254-2" data-name="椭圆 2254" cx="3.71" cy="3.71" r="3.71" transform="translate(-5052.326 -7881.326)" fill="#fff"/>
      <path id="info-2" data-name="info" d="M68.5,64a4.508,4.508,0,1,1-3.178,1.32A4.487,4.487,0,0,1,68.5,64Zm.673,2.762a.616.616,0,0,0,.432-.156.593.593,0,0,0,0-.833.663.663,0,0,0-.853,0,.594.594,0,0,0,0,.833.6.6,0,0,0,.422.156Zm.121,3.614c0-.04,0-.094.01-.161a.917.917,0,0,0,0-.191l-.532.612a.7.7,0,0,1-.166.141.178.178,0,0,1-.146.03.127.127,0,0,1-.08-.141l.883-2.781a.578.578,0,0,0-.542-.723,1.462,1.462,0,0,0-.768.3,2.9,2.9,0,0,0-.728.728v.151a.913.913,0,0,0,0,.191l.532-.613a.7.7,0,0,1,.166-.141.161.161,0,0,1,.136-.03.125.125,0,0,1,.07.161l-.874,2.771a.5.5,0,0,0,.071.447.757.757,0,0,0,.492.266,1.323,1.323,0,0,0,.844-.291,3.236,3.236,0,0,0,.633-.723Z" transform="translate(-5117 -7946)" fill="url(#linear-gradient-2)"/>
    </g>
  </g>
</svg>
