<svg xmlns="http://www.w3.org/2000/svg" width="20" height="20" viewBox="0 0 20 20">
  <g id="malay_flag" transform="translate(-1556.952 16152)">
    <path id="路径_543" data-name="路径 543" d="M10,20A10,10,0,1,0,0,10,10,10,0,0,0,10,20Z" transform="translate(1556.952 -16152)" fill="#f0f0f0"/>
    <path id="路径_544" data-name="路径 544" d="M26.833,119.12H37.269a9.99,9.99,0,0,0-.345-2.609H26.833Zm0-5.217H35.8a10.053,10.053,0,0,0-2.307-2.609h-6.66Zm.435,15.217a9.957,9.957,0,0,0,6.225-2.174H21.043a9.957,9.957,0,0,0,6.226,2.174Zm-8.533-4.783H35.8a9.941,9.941,0,0,0,1.123-2.609H17.613a9.94,9.94,0,0,0,1.123,2.609Z" transform="translate(1539.683 -16261.12)" fill="#d80027"/>
    <path id="路径_545" data-name="路径 545" d="M10,10V0A10,10,0,0,0,0,10Z" transform="translate(1556.952 -16152)" fill="#0052b4"/>
    <path id="路径_546" data-name="路径 546" d="M139.949,161.354a2.473,2.473,0,1,1,1.176-4.649,3.043,3.043,0,1,0,0,4.351A2.463,2.463,0,0,1,139.949,161.354Z" transform="translate(1423.654 -16304.794)" fill="#ffda44"/>
    <path id="路径_547" data-name="路径 547" d="M286.69,222.617l.439.918.991-.229-.444.915.8.633-.993.224,0,1.017-.794-.637-.794.637,0-1.017-.993-.224.8-.633-.444-.915.991.229Z" transform="translate(1277.611 -16370.27)" fill="#ffda44"/>
  </g>
</svg>
