<svg xmlns="http://www.w3.org/2000/svg" width="10.5" height="13.064" viewBox="0 0 10.5 13.064">
  <g id="password_icon" transform="translate(-156.218 -62.98)">
    <path id="路径_476" data-name="路径 476" d="M164.869,67.568h-.246V66.391a3.16,3.16,0,0,0-.9-2.215,3.168,3.168,0,0,0-5.426,2.215v1.177h-.235a1.6,1.6,0,0,0-1.6,1.6V74.2a1.6,1.6,0,0,0,1.6,1.6h6.8a1.6,1.6,0,0,0,1.6-1.6V69.167A1.6,1.6,0,0,0,164.869,67.568Zm-5.986-1.177a2.586,2.586,0,0,1,4.428-1.81,2.582,2.582,0,0,1,.732,1.81v1.177h-5.159Zm7,7.8a1.017,1.017,0,0,1-1.017,1.017h-6.8a1.017,1.017,0,0,1-1.017-1.017V69.167a1.017,1.017,0,0,1,1.017-1.017h6.8a1.017,1.017,0,0,1,1.017,1.017Z" fill="#fff" stroke="#fff" stroke-width="0.5"/>
    <path id="路径_477" data-name="路径 477" d="M489.553,580.447a.291.291,0,0,0-.291.291v1.541a.291.291,0,0,0,.581,0v-1.541A.291.291,0,0,0,489.553,580.447Z" transform="translate(-328.114 -509.943)" fill="#fff" stroke="#fff" stroke-width="0.5"/>
  </g>
</svg>
