<svg xmlns="http://www.w3.org/2000/svg" width="24" height="24" viewBox="0 0 24 24">
  <g id="lefticon" transform="translate(-64 -64)">
    <path id="路径_700" data-name="路径 700" d="M88,76q0-12-12-12T64,76q0,12,12,12T88,76ZM66.486,76q0-9.514,9.517-9.517T85.52,76q0,9.518-9.517,9.517T66.486,76Z" fill="#0189ff"/>
    <path id="路径_701" data-name="路径 701" d="M366.527,309.3a30.762,30.762,0,0,1-.571-4.958,25.135,25.135,0,0,1,.571-5.02c.2-.635-.595-1.031-.916-.761-.257.217-4.977,4.637-5.419,5.012-.64.429-.169,1.27-.169,1.27.319.276,5.277,4.8,5.652,5.111C365.952,310.182,366.527,310.19,366.527,309.3Z" transform="translate(-287.932 -228.198)" fill="#0189ff"/>
  </g>
</svg>
