<svg xmlns="http://www.w3.org/2000/svg" width="14" height="13.737" viewBox="0 0 14 13.737">
  <g id="闹钟" transform="translate(-44.7 -67.4)" opacity="0.64">
    <path id="路径_690" data-name="路径 690" d="M114.621,688.021m-.621,0a.621.621,0,1,0,.621-.621A.621.621,0,0,0,114,688.021Z" transform="translate(-68.248 -610.586)" fill="#30383f"/>
    <path id="路径_691" data-name="路径 691" d="M448.442,488.162a.621.621,0,0,1-.849.228l-3.672-2.12a.621.621,0,1,1,.621-1.077l3.67,2.118A.622.622,0,0,1,448.442,488.162Z" transform="translate(-392.853 -411.368)" fill="#30383f"/>
    <path id="路径_692" data-name="路径 692" d="M51.369,71.088a.622.622,0,0,1,.623.623v2.621a.623.623,0,1,1-1.245,0V71.709A.623.623,0,0,1,51.369,71.088Zm-3.245,7.493a.621.621,0,0,1,0,.879L46.63,80.955a.622.622,0,0,1-.879-.879l1.494-1.494A.621.621,0,0,1,48.124,78.582Zm6.906-.015a.621.621,0,0,0,0,.879l1.494,1.494a.622.622,0,1,0,.879-.879l-1.494-1.494A.621.621,0,0,0,55.03,78.567ZM47.5,67.582a.621.621,0,0,1,0,.879L45.761,70.2a.622.622,0,0,1-.879-.879l1.743-1.743A.621.621,0,0,1,47.5,67.582Zm11.013,2.744a.621.621,0,0,1-.879,0L55.9,68.584a.622.622,0,0,1,.879-.879l1.743,1.743A.62.62,0,0,1,58.518,70.326Z" fill="#30383f"/>
    <path id="路径_693" data-name="路径 693" d="M68.513,96.1a6.614,6.614,0,0,0-5.728,9.92l1.095-.566a5.4,5.4,0,1,1,1.149,1.359l-.439.424-.62.282A6.612,6.612,0,1,0,68.513,96.1Z" transform="translate(-16.939 -28.264)" fill="#30383f"/>
  </g>
</svg>
