<svg xmlns="http://www.w3.org/2000/svg" width="20" height="19.888" viewBox="0 0 20 19.888">
  <g id="thai_flag" transform="translate(-5.689 -5.689)">
    <path id="路径_540" data-name="路径 540" d="M7.924,193.422a9.531,9.531,0,0,0-2.235,6.257,10.163,10.163,0,0,0,2.235,6.257H23.343a9.531,9.531,0,0,0,2.235-6.257,10.163,10.163,0,0,0-2.235-6.257Z" transform="translate(0 -184.046)" fill="#f2f2f2"/>
    <path id="路径_541" data-name="路径 541" d="M134.886,9.376a9.9,9.9,0,0,0-15.419,0ZM119.467,21.89a9.9,9.9,0,0,0,15.419,0Z" transform="translate(-111.543)" fill="#dc3040"/>
    <path id="路径_542" data-name="路径 542" d="M6.359,335.644a9.283,9.283,0,0,0,0,6.927H25.018a9.283,9.283,0,0,0,0-6.927Z" transform="translate(0 -323.475)" fill="#2a5f9e"/>
  </g>
</svg>
