<svg xmlns="http://www.w3.org/2000/svg" width="12" height="10.091" viewBox="0 0 12 10.091">
  <g id="刷新" transform="translate(-27.109 -104.448)">
    <path id="路径_479" data-name="路径 479" d="M109.493,114.539a5.05,5.05,0,0,1-5.045-5.045c0-.108.006-.216.013-.323l.887.057c-.006.089-.006.177-.006.266a4.156,4.156,0,0,0,7.017,3.017l.608.647A5.024,5.024,0,0,1,109.493,114.539Zm5.045-5.045h-.887a3.374,3.374,0,0,0-.025-.437,4.163,4.163,0,0,0-6.465-3.011l-.488-.735a5.047,5.047,0,0,1,7.841,3.657A4.794,4.794,0,0,1,114.539,109.493Z" transform="translate(-76.382)" fill="#707070"/>
    <path id="路径_480" data-name="路径 480" d="M28.51,167.94l-1.388,2.485a.1.1,0,0,0,.082.146h2.77a.1.1,0,0,0,.082-.146l-1.382-2.485A.091.091,0,0,0,28.51,167.94Zm9.038,4.766-1.388-2.485a.1.1,0,0,1,.082-.146h2.77a.1.1,0,0,1,.082.146l-1.382,2.485a.1.1,0,0,1-.165,0Zm-7.429-5.863a.444.444,0,1,0,.444-.444A.444.444,0,0,0,30.12,166.844Zm5.673,7.213a.444.444,0,1,0,.444-.444A.444.444,0,0,0,35.793,174.057Z" transform="translate(0 -61.185)" fill="#707070"/>
  </g>
</svg>
